<svg width="1024" height="1024" version="1.1" xmlns="http://www.w3.org/2000/svg" desc="Created with imagetracer.js version 1.2.6" ><path fill="rgb(200,200,200)" stroke="rgb(200,200,200)" stroke-width="1" opacity="1" d="M 25.5 130 L 164 130.5 L 25.5 131 L 25.5 130 Z " /><path fill="rgb(200,200,200)" stroke="rgb(200,200,200)" stroke-width="1" opacity="1" d="M 222.5 130 L 370 130.5 L 222 131 L 222 848.5 L 222.5 849 L 362 849 L 362.5 491 L 364 496.5 L 363 497.5 L 363 848.5 L 361.5 850 L 222.5 850 L 221 848.5 L 221 131.5 L 222.5 130 Z " /><path fill="rgb(200,200,200)" stroke="rgb(200,200,200)" stroke-width="1" opacity="1" d="M 436.5 130 L 575 130.5 L 436 131 L 435.5 473 L 434 466.5 L 435 465.5 L 435 131.5 L 436.5 130 Z " /><path fill="rgb(200,200,200)" stroke="rgb(200,200,200)" stroke-width="1" opacity="1" d="M 638 130 L 780.5 130 L 782 131.5 L 782 386.5 L 782.5 387 L 848.5 387 L 848.5 388 L 782.5 388 L 781 386.5 L 781 131 L 639 131 L 639 848.5 L 639.5 849 L 781 849 L 781.5 523 L 782 848.5 L 780.5 850 L 638 850 L 638 130 Z " /><path fill="rgb(200,200,200)" stroke="rgb(200,200,200)" stroke-width="1" opacity="1" d="M 849.5 130 L 991.5 130 L 993 131.5 L 993 848.5 L 991.5 850 L 849 849.5 L 992 849 L 992 131.5 L 991.5 131 L 849.5 131 L 849.5 130 Z " /><path fill="rgb(200,200,200)" stroke="rgb(200,200,200)" stroke-width="1" opacity="1" d="M 370.5 132 L 371 134.5 L 370 134.5 L 370.5 132 Z " /><path fill="rgb(200,200,200)" stroke="rgb(200,200,200)" stroke-width="1" opacity="1" d="M 371.5 137 L 372 139.5 L 371 139.5 L 371.5 137 Z " /><path fill="rgb(200,200,200)" stroke="rgb(200,200,200)" stroke-width="1" opacity="1" d="M 372.5 142 L 373 144.5 L 372 144.5 L 372.5 142 Z " /><path fill="rgb(200,200,200)" stroke="rgb(200,200,200)" stroke-width="1" opacity="1" d="M 374.5 153 L 375 155.5 L 374 155.5 L 374.5 153 Z " /><path fill="rgb(200,200,200)" stroke="rgb(200,200,200)" stroke-width="1" opacity="1" d="M 375.5 158 L 376 160.5 L 375 160.5 L 375.5 158 Z " /><path fill="rgb(200,200,200)" stroke="rgb(200,200,200)" stroke-width="1" opacity="1" d="M 376.5 163 L 377 165.5 L 376 165.5 L 376.5 163 Z " /><path fill="rgb(200,200,200)" stroke="rgb(200,200,200)" stroke-width="1" opacity="1" d="M 379.5 179 L 380 181.5 L 379 181.5 L 379.5 179 Z " /><path fill="rgb(200,200,200)" stroke="rgb(200,200,200)" stroke-width="1" opacity="1" d="M 380.5 184 L 381 186.5 L 380 186.5 L 380.5 184 Z " /><path fill="rgb(200,200,200)" stroke="rgb(200,200,200)" stroke-width="1" opacity="1" d="M 381.5 189 L 382 191.5 L 381 191.5 L 381.5 189 Z " /><path fill="rgb(200,200,200)" stroke="rgb(200,200,200)" stroke-width="1" opacity="1" d="M 384.5 205 L 385 207.5 L 384 207.5 L 384.5 205 Z " /><path fill="rgb(200,200,200)" stroke="rgb(200,200,200)" stroke-width="1" opacity="1" d="M 385.5 210 L 386 212.5 L 385 212.5 L 385.5 210 Z " /><path fill="rgb(200,200,200)" stroke="rgb(200,200,200)" stroke-width="1" opacity="1" d="M 386.5 215 L 387 217.5 L 386 217.5 L 386.5 215 Z " /><path fill="rgb(200,200,200)" stroke="rgb(200,200,200)" stroke-width="1" opacity="1" d="M 389.5 231 L 390 233.5 L 389 233.5 L 389.5 231 Z " /><path fill="rgb(200,200,200)" stroke="rgb(200,200,200)" stroke-width="1" opacity="1" d="M 390.5 236 L 391 238.5 L 390 238.5 L 390.5 236 Z " /><path fill="rgb(200,200,200)" stroke="rgb(200,200,200)" stroke-width="1" opacity="1" d="M 393.5 252 L 394 254.5 L 393 254.5 L 393.5 252 Z " /><path fill="rgb(200,200,200)" stroke="rgb(200,200,200)" stroke-width="1" opacity="1" d="M 394.5 257 L 395 259.5 L 394 259.5 L 394.5 257 Z " /><path fill="rgb(200,200,200)" stroke="rgb(200,200,200)" stroke-width="1" opacity="1" d="M 395.5 262 L 396 264.5 L 395 264.5 L 395.5 262 Z " /><path fill="rgb(200,200,200)" stroke="rgb(200,200,200)" stroke-width="1" opacity="1" d="M 398.5 278 L 399 280.5 L 398 280.5 L 398.5 278 Z " /><path fill="rgb(200,200,200)" stroke="rgb(200,200,200)" stroke-width="1" opacity="1" d="M 399.5 283 L 400 285.5 L 399 285.5 L 399.5 283 Z " /><path fill="rgb(200,200,200)" stroke="rgb(200,200,200)" stroke-width="1" opacity="1" d="M 400.5 288 L 401 290.5 L 400 290.5 L 400.5 288 Z " /><path fill="rgb(200,200,200)" stroke="rgb(200,200,200)" stroke-width="1" opacity="1" d="M 403.5 304 L 404 306.5 L 403 306.5 L 403.5 304 Z " /><path fill="rgb(200,200,200)" stroke="rgb(200,200,200)" stroke-width="1" opacity="1" d="M 404.5 309 L 405 311.5 L 404 311.5 L 404.5 309 Z " /><path fill="rgb(200,200,200)" stroke="rgb(200,200,200)" stroke-width="1" opacity="1" d="M 405.5 314 L 406 316.5 L 405 316.5 L 405.5 314 Z " /><path fill="rgb(200,200,200)" stroke="rgb(200,200,200)" stroke-width="1" opacity="1" d="M 408.5 330 L 409 332.5 L 408 332.5 L 408.5 330 Z " /><path fill="rgb(200,200,200)" stroke="rgb(200,200,200)" stroke-width="1" opacity="1" d="M 409.5 335 L 410 337.5 L 409 337.5 L 409.5 335 Z " /><path fill="rgb(200,200,200)" stroke="rgb(200,200,200)" stroke-width="1" opacity="1" d="M 412.5 351 L 413 353.5 L 412 353.5 L 412.5 351 Z " /><path fill="rgb(200,200,200)" stroke="rgb(200,200,200)" stroke-width="1" opacity="1" d="M 413.5 356 L 414 358.5 L 413 358.5 L 413.5 356 Z " /><path fill="rgb(200,200,200)" stroke="rgb(200,200,200)" stroke-width="1" opacity="1" d="M 414.5 361 L 415 363.5 L 414 363.5 L 414.5 361 Z " /><path fill="rgb(200,200,200)" stroke="rgb(200,200,200)" stroke-width="1" opacity="1" d="M 417.5 377 L 418 379.5 L 417 379.5 L 417.5 377 Z " /><path fill="rgb(200,200,200)" stroke="rgb(200,200,200)" stroke-width="1" opacity="1" d="M 418.5 382 L 419 384.5 L 418 384.5 L 418.5 382 Z " /><path fill="rgb(200,200,200)" stroke="rgb(200,200,200)" stroke-width="1" opacity="1" d="M 419.5 387 L 420 389.5 L 419 389.5 L 419.5 387 Z " /><path fill="rgb(200,200,200)" stroke="rgb(200,200,200)" stroke-width="1" opacity="1" d="M 422.5 403 L 423 405.5 L 422 405.5 L 422.5 403 Z " /><path fill="rgb(200,200,200)" stroke="rgb(200,200,200)" stroke-width="1" opacity="1" d="M 423.5 408 L 424 410.5 L 423 410.5 L 423.5 408 Z " /><path fill="rgb(200,200,200)" stroke="rgb(200,200,200)" stroke-width="1" opacity="1" d="M 424.5 413 L 425 415.5 L 424 415.5 L 424.5 413 Z " /><path fill="rgb(200,200,200)" stroke="rgb(200,200,200)" stroke-width="1" opacity="1" d="M 426.5 424 L 427 426.5 L 426 426.5 L 426.5 424 Z " /><path fill="rgb(200,200,200)" stroke="rgb(200,200,200)" stroke-width="1" opacity="1" d="M 427.5 429 L 428 431.5 L 427 431.5 L 427.5 429 Z " /><path fill="rgb(200,200,200)" stroke="rgb(200,200,200)" stroke-width="1" opacity="1" d="M 428.5 434 L 429 436.5 L 428 436.5 L 428.5 434 Z " /><path fill="rgb(200,200,200)" stroke="rgb(200,200,200)" stroke-width="1" opacity="1" d="M 431.5 450 L 432 452.5 L 431 452.5 L 431.5 450 Z " /><path fill="rgb(200,200,200)" stroke="rgb(200,200,200)" stroke-width="1" opacity="1" d="M 432.5 455 L 433 457.5 L 432 457.5 L 432.5 455 Z " /><path fill="rgb(200,200,200)" stroke="rgb(200,200,200)" stroke-width="1" opacity="1" d="M 433.5 460 L 434 462.5 L 433 462.5 L 433.5 460 Z " /><path fill="rgb(200,200,200)" stroke="rgb(200,200,200)" stroke-width="1" opacity="1" d="M 369.5 525 L 370 527.5 L 369 527.5 L 369.5 525 Z " /><path fill="rgb(200,200,200)" stroke="rgb(200,200,200)" stroke-width="1" opacity="1" d="M 370.5 530 L 371 532.5 L 370 532.5 L 370.5 530 Z " /><path fill="rgb(200,200,200)" stroke="rgb(200,200,200)" stroke-width="1" opacity="1" d="M 371.5 535 L 372 537.5 L 371 537.5 L 371.5 535 Z " /><path fill="rgb(200,200,200)" stroke="rgb(200,200,200)" stroke-width="1" opacity="1" d="M 372.5 540 L 373 542.5 L 372 542.5 L 372.5 540 Z " /><path fill="rgb(200,200,200)" stroke="rgb(200,200,200)" stroke-width="1" opacity="1" d="M 373.5 545 L 374 547.5 L 373 547.5 L 373.5 545 Z " /><path fill="rgb(200,200,200)" stroke="rgb(200,200,200)" stroke-width="1" opacity="1" d="M 374.5 550 L 375 552.5 L 374 552.5 L 374.5 550 Z " /><path fill="rgb(200,200,200)" stroke="rgb(200,200,200)" stroke-width="1" opacity="1" d="M 375.5 555 L 376 557.5 L 375 557.5 L 375.5 555 Z " /><path fill="rgb(200,200,200)" stroke="rgb(200,200,200)" stroke-width="1" opacity="1" d="M 376.5 560 L 377 562.5 L 376 562.5 L 376.5 560 Z " /><path fill="rgb(200,200,200)" stroke="rgb(200,200,200)" stroke-width="1" opacity="1" d="M 377.5 565 L 378 567.5 L 377 567.5 L 377.5 565 Z " /><path fill="rgb(200,200,200)" stroke="rgb(200,200,200)" stroke-width="1" opacity="1" d="M 378.5 570 L 379 572.5 L 378 572.5 L 378.5 570 Z " /><path fill="rgb(200,200,200)" stroke="rgb(200,200,200)" stroke-width="1" opacity="1" d="M 379.5 575 L 380 577.5 L 379 577.5 L 379.5 575 Z " /><path fill="rgb(200,200,200)" stroke="rgb(200,200,200)" stroke-width="1" opacity="1" d="M 380.5 580 L 381 582.5 L 380 582.5 L 380.5 580 Z " /><path fill="rgb(200,200,200)" stroke="rgb(200,200,200)" stroke-width="1" opacity="1" d="M 381.5 585 L 382 587.5 L 381 587.5 L 381.5 585 Z " /><path fill="rgb(200,200,200)" stroke="rgb(200,200,200)" stroke-width="1" opacity="1" d="M 382.5 590 L 383 592.5 L 382 592.5 L 382.5 590 Z " /><path fill="rgb(200,200,200)" stroke="rgb(200,200,200)" stroke-width="1" opacity="1" d="M 383.5 595 L 384 597.5 L 383 597.5 L 383.5 595 Z " /><path fill="rgb(200,200,200)" stroke="rgb(200,200,200)" stroke-width="1" opacity="1" d="M 384.5 600 L 385 602.5 L 384 602.5 L 384.5 600 Z " /><path fill="rgb(200,200,200)" stroke="rgb(200,200,200)" stroke-width="1" opacity="1" d="M 385.5 605 L 386 607.5 L 385 607.5 L 385.5 605 Z " /><path fill="rgb(200,200,200)" stroke="rgb(200,200,200)" stroke-width="1" opacity="1" d="M 386.5 610 L 387 612.5 L 386 612.5 L 386.5 610 Z " /><path fill="rgb(200,200,200)" stroke="rgb(200,200,200)" stroke-width="1" opacity="1" d="M 387.5 615 L 388 617.5 L 387 617.5 L 387.5 615 Z " /><path fill="rgb(200,200,200)" stroke="rgb(200,200,200)" stroke-width="1" opacity="1" d="M 388.5 620 L 389 622.5 L 388 622.5 L 388.5 620 Z " /><path fill="rgb(200,200,200)" stroke="rgb(200,200,200)" stroke-width="1" opacity="1" d="M 389.5 625 L 390 627.5 L 389 627.5 L 389.5 625 Z " /><path fill="rgb(200,200,200)" stroke="rgb(200,200,200)" stroke-width="1" opacity="1" d="M 390.5 630 L 391 632.5 L 390 632.5 L 390.5 630 Z " /><path fill="rgb(200,200,200)" stroke="rgb(200,200,200)" stroke-width="1" opacity="1" d="M 391.5 635 L 392 637.5 L 391 637.5 L 391.5 635 Z " /><path fill="rgb(200,200,200)" stroke="rgb(200,200,200)" stroke-width="1" opacity="1" d="M 392.5 640 L 393 642.5 L 392 642.5 L 392.5 640 Z " /><path fill="rgb(200,200,200)" stroke="rgb(200,200,200)" stroke-width="1" opacity="1" d="M 393.5 645 L 394 647.5 L 393 647.5 L 393.5 645 Z " /><path fill="rgb(200,200,200)" stroke="rgb(200,200,200)" stroke-width="1" opacity="1" d="M 394.5 650 L 395 652.5 L 394 652.5 L 394.5 650 Z " /><path fill="rgb(200,200,200)" stroke="rgb(200,200,200)" stroke-width="1" opacity="1" d="M 395.5 655 L 396 657.5 L 395 657.5 L 395.5 655 Z " /><path fill="rgb(200,200,200)" stroke="rgb(200,200,200)" stroke-width="1" opacity="1" d="M 396.5 660 L 397 662.5 L 396 662.5 L 396.5 660 Z " /><path fill="rgb(200,200,200)" stroke="rgb(200,200,200)" stroke-width="1" opacity="1" d="M 397.5 665 L 398 667.5 L 397 667.5 L 397.5 665 Z " /><path fill="rgb(200,200,200)" stroke="rgb(200,200,200)" stroke-width="1" opacity="1" d="M 398.5 670 L 399 672.5 L 398 672.5 L 398.5 670 Z " /><path fill="rgb(200,200,200)" stroke="rgb(200,200,200)" stroke-width="1" opacity="1" d="M 399.5 675 L 400 677.5 L 399 677.5 L 399.5 675 Z " /><path fill="rgb(200,200,200)" stroke="rgb(200,200,200)" stroke-width="1" opacity="1" d="M 400.5 680 L 401 682.5 L 400 682.5 L 400.5 680 Z " /><path fill="rgb(200,200,200)" stroke="rgb(200,200,200)" stroke-width="1" opacity="1" d="M 401.5 685 L 402 687.5 L 401 687.5 L 401.5 685 Z " /><path fill="rgb(200,200,200)" stroke="rgb(200,200,200)" stroke-width="1" opacity="1" d="M 402.5 690 L 403 692.5 L 402 692.5 L 402.5 690 Z " /><path fill="rgb(200,200,200)" stroke="rgb(200,200,200)" stroke-width="1" opacity="1" d="M 403.5 695 L 404 697.5 L 403 697.5 L 403.5 695 Z " /><path fill="rgb(200,200,200)" stroke="rgb(200,200,200)" stroke-width="1" opacity="1" d="M 404.5 700 L 405 702.5 L 404 702.5 L 404.5 700 Z " /><path fill="rgb(200,200,200)" stroke="rgb(200,200,200)" stroke-width="1" opacity="1" d="M 405.5 705 L 406 707.5 L 405 707.5 L 405.5 705 Z " /><path fill="rgb(200,200,200)" stroke="rgb(200,200,200)" stroke-width="1" opacity="1" d="M 406.5 710 L 407 712.5 L 406 712.5 L 406.5 710 Z " /><path fill="rgb(200,200,200)" stroke="rgb(200,200,200)" stroke-width="1" opacity="1" d="M 407.5 715 L 408 717.5 L 407 717.5 L 407.5 715 Z " /><path fill="rgb(200,200,200)" stroke="rgb(200,200,200)" stroke-width="1" opacity="1" d="M 408.5 720 L 409 722.5 L 408 722.5 L 408.5 720 Z " /><path fill="rgb(200,200,200)" stroke="rgb(200,200,200)" stroke-width="1" opacity="1" d="M 409.5 725 L 410 727.5 L 409 727.5 L 409.5 725 Z " /><path fill="rgb(200,200,200)" stroke="rgb(200,200,200)" stroke-width="1" opacity="1" d="M 410.5 730 L 411 732.5 L 410 732.5 L 410.5 730 Z " /><path fill="rgb(200,200,200)" stroke="rgb(200,200,200)" stroke-width="1" opacity="1" d="M 411.5 735 L 412 737.5 L 411 737.5 L 411.5 735 Z " /><path fill="rgb(200,200,200)" stroke="rgb(200,200,200)" stroke-width="1" opacity="1" d="M 412.5 740 L 413 742.5 L 412 742.5 L 412.5 740 Z " /><path fill="rgb(200,200,200)" stroke="rgb(200,200,200)" stroke-width="1" opacity="1" d="M 413.5 745 L 414 747.5 L 413 747.5 L 413.5 745 Z " /><path fill="rgb(200,200,200)" stroke="rgb(200,200,200)" stroke-width="1" opacity="1" d="M 414.5 750 L 415 752.5 L 414 752.5 L 414.5 750 Z " /><path fill="rgb(200,200,200)" stroke="rgb(200,200,200)" stroke-width="1" opacity="1" d="M 415.5 755 L 416 757.5 L 415 757.5 L 415.5 755 Z " /><path fill="rgb(200,200,200)" stroke="rgb(200,200,200)" stroke-width="1" opacity="1" d="M 416.5 760 L 417 762.5 L 416 762.5 L 416.5 760 Z " /><path fill="rgb(200,200,200)" stroke="rgb(200,200,200)" stroke-width="1" opacity="1" d="M 417.5 765 L 418 767.5 L 417 767.5 L 417.5 765 Z " /><path fill="rgb(200,200,200)" stroke="rgb(200,200,200)" stroke-width="1" opacity="1" d="M 418.5 770 L 419 772.5 L 418 772.5 L 418.5 770 Z " /><path fill="rgb(200,200,200)" stroke="rgb(200,200,200)" stroke-width="1" opacity="1" d="M 419.5 775 L 420 777.5 L 419 777.5 L 419.5 775 Z " /><path fill="rgb(200,200,200)" stroke="rgb(200,200,200)" stroke-width="1" opacity="1" d="M 420.5 780 L 421 782.5 L 420 782.5 L 420.5 780 Z " /><path fill="rgb(200,200,200)" stroke="rgb(200,200,200)" stroke-width="1" opacity="1" d="M 421.5 785 L 422 787.5 L 421 787.5 L 421.5 785 Z " /><path fill="rgb(200,200,200)" stroke="rgb(200,200,200)" stroke-width="1" opacity="1" d="M 422.5 790 L 423 792.5 L 422 792.5 L 422.5 790 Z " /><path fill="rgb(200,200,200)" stroke="rgb(200,200,200)" stroke-width="1" opacity="1" d="M 423.5 795 L 424 797.5 L 423 797.5 L 423.5 795 Z " /><path fill="rgb(200,200,200)" stroke="rgb(200,200,200)" stroke-width="1" opacity="1" d="M 424.5 800 L 425 802.5 L 424 802.5 L 424.5 800 Z " /><path fill="rgb(200,200,200)" stroke="rgb(200,200,200)" stroke-width="1" opacity="1" d="M 425.5 805 L 426 807.5 L 425 807.5 L 425.5 805 Z " /><path fill="rgb(200,200,200)" stroke="rgb(200,200,200)" stroke-width="1" opacity="1" d="M 426.5 810 L 427 812.5 L 426 812.5 L 426.5 810 Z " /><path fill="rgb(200,200,200)" stroke="rgb(200,200,200)" stroke-width="1" opacity="1" d="M 427.5 815 L 428 817.5 L 427 817.5 L 427.5 815 Z " /><path fill="rgb(200,200,200)" stroke="rgb(200,200,200)" stroke-width="1" opacity="1" d="M 428.5 820 L 429 822.5 L 428 822.5 L 428.5 820 Z " /><path fill="rgb(200,200,200)" stroke="rgb(200,200,200)" stroke-width="1" opacity="1" d="M 429.5 825 L 430 827.5 L 429 827.5 L 429.5 825 Z " /><path fill="rgb(200,200,200)" stroke="rgb(200,200,200)" stroke-width="1" opacity="1" d="M 430.5 830 L 431 832.5 L 430 832.5 L 430.5 830 Z " /><path fill="rgb(200,200,200)" stroke="rgb(200,200,200)" stroke-width="1" opacity="1" d="M 431.5 835 L 432 837.5 L 431 837.5 L 431.5 835 Z " /><path fill="rgb(200,200,200)" stroke="rgb(200,200,200)" stroke-width="1" opacity="1" d="M 432.5 840 L 433 842.5 L 432 842.5 L 432.5 840 Z " /><path fill="rgb(200,200,200)" stroke="rgb(200,200,200)" stroke-width="1" opacity="1" d="M 433.5 845 L 434 847.5 L 433 847.5 L 433.5 845 Z " /><path fill="rgb(200,200,200)" stroke="rgb(200,200,200)" stroke-width="1" opacity="1" d="M 25.5 849 L 164 849.5 L 25.5 850 L 25.5 849 Z " /><path fill="rgb(200,200,200)" stroke="rgb(200,200,200)" stroke-width="1" opacity="1" d="M 434.5 849 L 575 849.5 L 434.5 850 L 434.5 849 Z " /><path fill="rgb(255,255,255)" stroke="rgb(255,255,255)" stroke-width="1" opacity="1" d="M 0 0 L 1024 0 L 1024 1024 L 0 1024 L 0 0 Z M 25 130 L 25 850 L 26 850 L 164 850 L 164 131 L 164 130 L 25 130 Z M 223 130 L 221 132 L 221 849 L 223 850 L 362 850 L 363 849 L 364 497 L 434 849 L 435 850 L 575 850 L 575 131 L 575 130 L 437 130 L 435 132 L 435 466 L 425 419 L 425 414 L 420 393 L 420 388 L 415 367 L 415 362 L 410 341 L 410 336 L 406 320 L 406 315 L 401 294 L 401 289 L 396 268 L 396 263 L 391 242 L 391 237 L 387 221 L 387 216 L 382 195 L 382 190 L 377 169 L 377 164 L 373 148 L 373 143 L 370 132 L 370 130 L 223 130 Z M 638 130 L 638 850 L 639 850 L 781 850 L 782 849 L 782 523 L 849 523 L 849 524 L 849 850 L 992 850 L 993 849 L 993 132 L 992 130 L 849 130 L 849 387 L 783 387 L 782 387 L 782 132 L 781 130 L 638 130 Z " /><path fill="rgb(0,0,0)" stroke="rgb(0,0,0)" stroke-width="1" opacity="1" d="M 25 131 L 163.5 131 L 164 131.5 L 164 849 L 25.5 849 L 25 848.5 L 25 131 Z " /><path fill="rgb(0,0,0)" stroke="rgb(0,0,0)" stroke-width="1" opacity="1" d="M 222 131 L 369.5 131 L 370 134.5 L 374 150.5 L 374 155.5 L 379 176.5 L 379 181.5 L 384 202.5 L 384 207.5 L 389 228.5 L 389 233.5 L 393 249.5 L 393 254.5 L 398 275.5 L 398 280.5 L 403 301.5 L 403 306.5 L 408 327.5 L 408 332.5 L 412 348.5 L 412 353.5 L 417 374.5 L 417 379.5 L 435.5 473 L 436 131 L 574.5 131 L 575 131.5 L 575 849 L 434.5 849 L 434 845.5 L 362.5 491 L 362 849 L 222.5 849 L 222 848.5 L 222 131 Z " /><path fill="rgb(0,0,0)" stroke="rgb(0,0,0)" stroke-width="1" opacity="1" d="M 639 131 L 781 131 L 781 386.5 L 782.5 388 L 849 388 L 849 131 L 992 131 L 992 848.5 L 991.5 849 L 849 849 L 849 523.5 L 848.5 523 L 781 523 L 781 849 L 639 849 L 639 131 Z " /></svg>